<?xml version="1.0" encoding="UTF-8"?>
<svg id="Capa_1" data-name="Capa 1" xmlns="http://www.w3.org/2000/svg" version="1.1" viewBox="0 0 456.1 250.2">
  <defs>
    <style>
      .cls-1 {
        fill: #f49600;
      }

      .cls-1, .cls-2 {
        stroke-width: 0px;
      }

      .cls-2 {
        fill: #5f5e5e;
      }
    </style>
  </defs>
  <g>
    <path class="cls-2" d="M224.7,121c-3.3,6-8.4,10.8-15.2,14.4-6.9,3.7-15.4,5.5-25.5,5.5h-18.8v44.7h-30.3V61.2h49.1c9.9,0,18.3,1.7,25.2,5.1s12,8.2,15.4,14.2,5.1,12.9,5.1,20.7-1.7,13.8-5,19.8ZM194.5,112.8c2.8-2.7,4.2-6.6,4.2-11.5s-1.4-8.8-4.2-11.5-7.1-4.1-12.9-4.1h-16.5v31.2h16.5c5.8,0,10.1-1.4,12.9-4.1Z"/>
    <path class="cls-2" d="M312.2,163.7h-46.5l-7.5,22h-31.7l45-124.5h35.1l45,124.5h-32.1l-7.5-22h.2ZM304.5,140.3l-15.4-45.6-15.2,45.6h30.7-.1Z"/>
    <path class="cls-2" d="M386,182.5c-7.2-2.9-13-7.3-17.3-13.1s-6.6-12.8-6.8-20.9h32.3c.5,4.6,2.1,8.1,4.8,10.6s6.3,3.6,10.6,3.6,8-1,10.6-3.1,3.9-4.9,3.9-8.6-1-5.6-3.1-7.6-4.6-3.7-7.6-5-7.3-2.8-12.9-4.4c-8-2.5-14.6-5-19.7-7.4-5.1-2.5-9.5-6.1-13.1-11-3.7-4.8-5.5-11.2-5.5-19,0-11.6,4.2-20.7,12.6-27.2,8.4-6.6,19.3-9.8,32.8-9.8s24.8,3.3,33.1,9.8c8.4,6.6,12.9,15.7,13.5,27.4h-32.8c-.2-4-1.7-7.2-4.4-9.5-2.7-2.3-6.2-3.5-10.5-3.5s-6.6,1-8.9,2.9-3.4,4.8-3.4,8.4,1.9,7.2,5.7,9.4,9.7,4.7,17.7,7.3c8,2.7,14.6,5.3,19.6,7.8s9.4,6.1,13,10.8c3.7,4.7,5.5,10.8,5.5,18.3s-1.8,13.5-5.4,19.3-8.8,10.4-15.7,13.8c-6.9,3.4-15,5.1-24.3,5.1s-17.3-1.5-24.5-4.4h.2Z"/>
  </g>
  <path class="cls-1" d="M190.3,223.4h-37.9c-7,2-14.3,3.2-21.7,3.6-27.2,1.6-53.3-7.6-73.7-25.7s-32.4-43.1-34-70.2c-1.6-27.2,7.5-53.3,25.7-73.7,18.1-20.4,43.1-32.4,70.2-34,1.3,0,2.6-.1,3.9-.1,25.7-.5,50.3,8.6,69.6,25.8h22.2c-.9-1-1.7-2-2.6-3l3.8-5.6-14.2-14.2-.2,3.1c-.1,1.8-.6,3.5-1.5,5.1-2.7-2.3-5.6-4.4-8.5-6.4l2.4-6.3-17.1-10.6.5,3.1c.3,1.8.2,3.6-.2,5.3-3.2-1.6-6.5-3-9.8-4.3l.9-6.7-19.1-6.3,1.2,2.9c.7,1.7,1,3.4,1,5.2-3.4-.8-6.9-1.4-10.5-1.9l-.7-6.7L120,0l1.8,2.5c1,1.5,1.8,3.1,2.2,4.9-2.1,0-4.1,0-6.1.2-1.5,0-3,.2-4.5.3l-2.2-6.4-19.9,2.9,2.3,2.1c1.3,1.2,2.4,2.6,3.2,4.2-3.4.8-6.9,1.8-10.2,3l-3.6-5.7-18.7,7.4,2.7,1.5c1.6.8,3,2,4.1,3.3-3.2,1.6-6.3,3.4-9.3,5.3l-4.8-4.7-16.5,11.6,3,.8c1.7.5,3.4,1.2,4.8,2.3-2.7,2.3-5.3,4.7-7.8,7.3l-5.8-3.5-13.4,15h3.1c1.8,0,3.6.5,5.2,1.2-2.1,2.9-4.1,5.8-5.9,8.8l-6.4-2.1-9.5,17.7,3-.6c1.7-.4,3.5-.4,5.3,0-1.4,3.3-2.6,6.6-3.7,10l-6.7-.5L.6,108.1l2.8-1.3c1.6-.8,3.4-1.2,5.1-1.3-.6,3.5-1,7-1.3,10.6l-6.7,1.1-.5,20,2.4-1.9c1.4-1.1,3-2,4.7-2.5.2,3.5.6,7.1,1.2,10.6l-6.3,2.6,4.1,19.7,1.9-2.4c1.1-1.4,2.5-2.6,4-3.5,1,3.4,2.2,6.8,3.6,10l-5.5,3.9,8.5,18.2,1.3-2.8c.7-1.6,1.8-3.1,3.1-4.3,1.8,3.1,3.7,6,5.8,8.9l-4.4,5.1,12.5,15.8.6-3.1c.3-1.8,1-3.4,2-4.9,2.2,2.3,4.5,4.5,6.8,6.6.3.2.6.5.8.7l-3.2,6,15.8,12.5v-3.1c-.2-1.8,0-3.6.7-5.2,3,1.9,6.1,3.8,9.2,5.4l-1.7,6.5,18.2,8.5-.8-3c-.5-1.7-.6-3.5-.4-5.3,3.3,1.2,6.7,2.2,10.2,3.1v6.7c0,0,19.6,4.1,19.6,4.1l-1.5-2.7c-.9-1.6-1.4-3.3-1.6-5.1,3.5.4,7.1.6,10.6.7l1.4,6.6,20.1-.6-2.1-2.3c-1.2-1.3-2.1-2.9-2.7-4.6,3.5-.4,7-1,10.5-1.8l2.9,6.1,19.4-5.2-2.6-1.8c-1.5-1-2.7-2.3-3.7-3.8,3.3-1.2,6.6-2.6,9.8-4.1l4.2,5.2,17.7-9.6-2.9-1.1c-1.6-.6-3.1-1.6-4.4-2.8h0l.5.2Z"/>
  <g>
    <path class="cls-2" d="M144.1,204.3c-.3.6-.9,1.1-1.6,1.5s-1.6.6-2.8.6h-2.5v5.5h-2.2v-13.6h4.7c1,0,1.9.2,2.6.5s1.3.8,1.6,1.4.5,1.3.5,2.1-.2,1.3-.5,1.9h.2ZM141.6,203.9c.4-.4.6-.9.6-1.6,0-1.5-.8-2.2-2.5-2.2h-2.5v4.4h2.5c.9,0,1.5-.2,1.9-.6h0Z"/>
    <path class="cls-2" d="M156.4,200.1v4h4.7v1.8h-4.7v4.2h5.3v1.8h-7.5v-13.6h7.5v1.8h-5.3Z"/>
    <path class="cls-2" d="M179,211.8l-3.1-5.4h-1.7v5.4h-2.2v-13.6h4.7c1,0,1.9.2,2.6.6.7.4,1.3.9,1.6,1.5s.5,1.3.5,2.1-.3,1.7-.8,2.4-1.3,1.2-2.4,1.5l3.4,5.6h-2.7,0ZM174.2,204.6h2.5c.8,0,1.5-.2,1.9-.6.4-.4.6-1,.6-1.7s-.2-1.2-.6-1.6-1.1-.6-1.9-.6h-2.5v4.6h0Z"/>
    <path class="cls-2" d="M199.8,198.3v1.8h-5.8v4h4.5v1.8h-4.5v5.9h-2.2v-13.6h8Z"/>
    <path class="cls-2" d="M212,211.1c-1.1-.6-1.9-1.4-2.5-2.5s-.9-2.2-.9-3.6.3-2.5.9-3.6,1.5-1.9,2.5-2.5,2.2-.9,3.5-.9,2.4.3,3.5.9,1.9,1.4,2.5,2.5.9,2.2.9,3.6-.3,2.5-.9,3.6-1.4,1.9-2.5,2.5-2.2.9-3.5.9-2.4-.3-3.5-.9ZM217.9,209.4c.7-.4,1.2-1,1.6-1.8s.6-1.6.6-2.6-.2-1.9-.6-2.6c-.4-.8-.9-1.3-1.6-1.7s-1.5-.6-2.4-.6-1.7.2-2.4.6c-.7.4-1.2,1-1.6,1.7-.4.8-.6,1.6-.6,2.6s.2,1.9.6,2.6.9,1.4,1.6,1.8c.7.4,1.5.6,2.4.6s1.7-.2,2.4-.6Z"/>
    <path class="cls-2" d="M239.2,211.8l-3.1-5.4h-1.7v5.4h-2.2v-13.6h4.7c1,0,1.9.2,2.6.6.7.4,1.3.9,1.6,1.5s.5,1.3.5,2.1-.3,1.7-.8,2.4-1.3,1.2-2.4,1.5l3.4,5.6h-2.7,0ZM234.4,204.6h2.5c.8,0,1.5-.2,1.9-.6.4-.4.6-1,.6-1.7s-.2-1.2-.6-1.6-1.1-.6-1.9-.6h-2.5v4.6h0Z"/>
    <path class="cls-2" d="M260.2,209.1h-5.7l-1,2.8h-2.3l4.9-13.6h2.6l4.9,13.6h-2.3l-1-2.8h-.1ZM259.5,207.2l-2.2-6.3-2.2,6.3h4.4Z"/>
    <path class="cls-2" d="M273.3,201.4c.6-1.1,1.5-1.9,2.5-2.5s2.2-.9,3.5-.9,2.7.4,3.9,1.1c1.1.7,1.9,1.7,2.5,3h-2.7c-.4-.7-.8-1.2-1.5-1.6s-1.4-.5-2.2-.5-1.7.2-2.4.6c-.7.4-1.2,1-1.6,1.7-.4.8-.6,1.6-.6,2.6s.2,1.9.6,2.6c.4.8,1,1.3,1.6,1.8.7.4,1.5.6,2.4.6s1.5-.2,2.2-.5c.6-.4,1.1-.9,1.5-1.6h2.7c-.5,1.3-1.3,2.3-2.5,3s-2.4,1.1-3.9,1.1-2.4-.3-3.5-.9-1.9-1.4-2.5-2.5-.9-2.2-.9-3.6.3-2.5.9-3.6h0Z"/>
    <path class="cls-2" d="M297.9,198.3v13.6h-2.2v-13.6h2.2Z"/>
    <path class="cls-2" d="M311.1,211.1c-1.1-.6-1.9-1.4-2.5-2.5s-.9-2.2-.9-3.6.3-2.5.9-3.6,1.5-1.9,2.5-2.5,2.2-.9,3.5-.9,2.4.3,3.5.9,1.9,1.4,2.5,2.5.9,2.2.9,3.6-.3,2.5-.9,3.6-1.5,1.9-2.5,2.5-2.2.9-3.5.9-2.4-.3-3.5-.9ZM317,209.4c.7-.4,1.2-1,1.6-1.8s.6-1.6.6-2.6-.2-1.9-.6-2.6c-.4-.8-1-1.3-1.6-1.7-.7-.4-1.5-.6-2.4-.6s-1.7.2-2.4.6-1.2,1-1.6,1.7c-.4.8-.6,1.6-.6,2.6s.2,1.9.6,2.6,1,1.4,1.6,1.8c.7.4,1.5.6,2.4.6s1.7-.2,2.4-.6Z"/>
    <path class="cls-2" d="M342.3,211.8h-2.2l-6.7-10.1v10.1h-2.2v-13.6h2.2l6.7,10.1v-10.1h2.2v13.6Z"/>
    <path class="cls-2" d="M355,200.1v4h4.7v1.8h-4.7v4.2h5.3v1.8h-7.5v-13.6h7.5v1.8h-5.3Z"/>
    <path class="cls-2" d="M372.5,211.5c-.7-.3-1.3-.8-1.7-1.4s-.6-1.3-.6-2.1h2.4c0,.6.3,1.1.7,1.4.4.4,1,.6,1.7.6s1.4-.2,1.8-.6c.4-.4.6-.9.6-1.4s-.1-.8-.4-1.1-.6-.5-1-.7-1-.3-1.6-.5c-.9-.2-1.6-.5-2.2-.7-.5-.2-1-.6-1.4-1.1s-.6-1.2-.6-2,.2-1.5.6-2.1.9-1,1.6-1.4c.7-.3,1.5-.5,2.4-.5,1.3,0,2.4.3,3.2,1s1.3,1.6,1.4,2.7h-2.5c0-.5-.3-.9-.7-1.3-.4-.4-1-.5-1.7-.5s-1.2.2-1.6.5-.6.8-.6,1.4.1.8.4,1,.6.5,1,.6.9.3,1.6.5c.9.2,1.6.5,2.2.7s1,.6,1.4,1.1.6,1.2.6,2.1-.2,1.3-.6,1.9-.9,1.1-1.6,1.5-1.5.6-2.5.6-1.7-.2-2.5-.5h0l.2.3Z"/>
    <path class="cls-2" d="M413.2,198.3v13.6h-2.2v-5.9h-6.4v5.9h-2.2v-13.6h2.2v5.8h6.4v-5.8h2.2Z"/>
    <path class="cls-2" d="M420.1,199.1c.7-.6,1.5-.9,2.6-.9s1.3.1,1.9.4c.5.3,1,.7,1.3,1.2s.5,1.1.5,1.8-.2,1.3-.5,1.8-.8.9-1.3,1.2-1.2.4-1.9.4c-1.1,0-1.9-.3-2.6-1s-1-1.5-1-2.5.3-1.9,1-2.5h0ZM424,200c-.4-.4-.8-.6-1.3-.6s-.9.2-1.3.6c-.4.4-.5.9-.5,1.6s.2,1.2.5,1.6c.3.4.8.6,1.3.6s1-.2,1.3-.6.6-.9.6-1.6-.2-1.2-.5-1.6h-.1Z"/>
    <path class="cls-2" d="M440.5,209.1h-5.7l-1,2.8h-2.3l4.9-13.6h2.6l4.9,13.6h-2.3l-1-2.8h-.1ZM439.8,207.2l-2.2-6.3-2.2,6.3h4.4Z"/>
    <path class="cls-2" d="M449.9,199.1c.7-.6,1.5-.9,2.6-.9s1.3.1,1.9.4c.5.3,1,.7,1.3,1.2s.5,1.1.5,1.8-.2,1.3-.5,1.8-.8.9-1.3,1.2-1.2.4-1.9.4c-1.1,0-1.9-.3-2.6-1s-1-1.5-1-2.5.3-1.9,1-2.5h0ZM453.8,200c-.4-.4-.8-.6-1.3-.6s-.9.2-1.3.6c-.4.4-.5.9-.5,1.6s.2,1.2.5,1.6c.3.4.8.6,1.3.6s1-.2,1.3-.6.6-.9.6-1.6-.2-1.2-.5-1.6h-.1Z"/>
  </g>
</svg>