<svg xmlns="http://www.w3.org/2000/svg" version="1.1" id="Capa_1" data-name="Capa 1" viewBox="0 0 250.19999 250.2" sodipodi:docname="minilogo.svg" width="250.2" height="250.2" inkscape:version="1.4.3 (0d15f75, 2025-12-25)" xmlns:inkscape="http://www.inkscape.org/namespaces/inkscape" xmlns:sodipodi="http://sodipodi.sourceforge.net/DTD/sodipodi-0.dtd" xmlns:svg="http://www.w3.org/2000/svg"><sodipodi:namedview id="namedview1" pagecolor="#ffffff" bordercolor="#000000" borderopacity="0.25" inkscape:showpageshadow="2" inkscape:pageopacity="0.0" inkscape:pagecheckerboard="0" inkscape:deskcolor="#d1d1d1" inkscape:zoom="1.6127099" inkscape:cx="112.54349" inkscape:cy="116.26394" inkscape:window-width="1920" inkscape:window-height="1009" inkscape:window-x="-8" inkscape:window-y="-8" inkscape:window-maximized="1" inkscape:current-layer="Capa_1"></sodipodi:namedview><defs id="defs1">
    <style id="style1">
      .cls-1 {
        fill: #f49600;
      }

      .cls-1, .cls-2 {
        stroke-width: 0px;
      }

      .cls-2 {
        fill: #5f5e5e;
      }
    </style>
  </defs><g id="g1" transform="translate(-1.402163,0.0499971)">
    <g id="g3" transform="matrix(0.5,0,0,0.5,-24.862832,63.425)">
      <path class="cls-2" d="m 269.3454,121.00001 c -3.3,6 -8.4,10.8 -15.2,14.4 -6.9,3.7 -15.4,5.5 -25.5,5.5 h -18.8 v 44.7 h -30.3 V 61.200005 h 49.1 c 9.9,0 18.3,1.7 25.2,5.1 6.9,3.4 12,8.2 15.4,14.2 3.4,6 5.1,12.9 5.1,20.700005 0,7.8 -1.7,13.8 -5,19.8 z m -30.2,-8.2 c 2.8,-2.7 4.2,-6.6 4.2,-11.5 0,-4.900005 -1.4,-8.800005 -4.2,-11.500005 -2.8,-2.7 -7.1,-4.1 -12.9,-4.1 h -16.5 v 31.200005 h 16.5 c 5.8,0 10.1,-1.4 12.9,-4.1 z" id="path1" style="fill:#f49600;fill-opacity:1"></path>
      <path class="cls-2" d="m 356.8454,163.70001 h -46.5 l -7.5,22 h -31.7 l 45,-124.500005 h 35.1 l 45,124.500005 h -32.1 l -7.5,-22 z m -7.7,-23.4 -15.4,-45.600005 -15.2,45.600005 h 30.7 z" id="path2" style="fill:#f49600;fill-opacity:1"></path>
      <path class="cls-2" d="m 430.6454,182.50001 c -7.2,-2.9 -13,-7.3 -17.3,-13.1 -4.3,-5.8 -6.6,-12.8 -6.8,-20.9 h 32.3 c 0.5,4.6 2.1,8.1 4.8,10.6 2.7,2.5 6.3,3.6 10.6,3.6 4.3,0 8,-1 10.6,-3.1 2.6,-2.1 3.9,-4.9 3.9,-8.6 0,-3.7 -1,-5.6 -3.1,-7.6 -2.1,-2 -4.6,-3.7 -7.6,-5 -3,-1.3 -7.3,-2.8 -12.9,-4.4 -8,-2.5 -14.6,-5 -19.7,-7.4 -5.1,-2.5 -9.5,-6.1 -13.1,-11 -3.7,-4.8 -5.5,-11.2 -5.5,-19.000005 0,-11.6 4.2,-20.7 12.6,-27.2 8.4,-6.6 19.3,-9.8 32.8,-9.8 13.5,0 24.8,3.3 33.1,9.8 8.4,6.6 12.9,15.7 13.5,27.4 h -32.8 c -0.2,-4 -1.7,-7.199999 -4.4,-9.5 -2.7,-2.3 -6.2,-3.5 -10.5,-3.5 -4.3,0 -6.6,1 -8.9,2.900001 -2.3,1.9 -3.4,4.8 -3.4,8.4 0,3.6 1.9,7.200004 5.7,9.400004 3.8,2.2 9.7,4.7 17.7,7.3 8,2.7 14.6,5.3 19.6,7.8 5,2.5 9.4,6.1 13,10.8 3.7,4.7 5.5,10.8 5.5,18.3 0,7.5 -1.8,13.5 -5.4,19.3 -3.6,5.8 -8.8,10.4 -15.7,13.8 -6.9,3.4 -15,5.1 -24.3,5.1 -9.3,0 -17.3,-1.5 -24.5,-4.4 z" id="path3" style="fill:#f49600;fill-opacity:1"></path>
    </g>
    <path class="cls-1" d="m 208.9021,223.4 h -37.9 c -7,2 -14.3,3.2 -21.7,3.6 -27.2,1.6 -53.299877,-7.6 -73.699877,-25.7 -20.4,-18.1 -32.4,-43.1 -34,-70.2 -1.6,-27.2 7.5,-53.299997 25.7,-73.699997 18.1,-20.4 43.099937,-32.4 70.199877,-34 1.3,0 2.6,-0.1 3.9,-0.1 25.7,-0.5 50.3,8.6 69.6,25.8 h 22.2 c -0.9,-1 -1.7,-2 -2.6,-3 l 3.8,-5.6 -14.2,-14.2 -0.2,3.1 c -0.1,1.8 -0.6,3.5 -1.5,5.1 -2.7,-2.3 -5.6,-4.4 -8.5,-6.4 l 2.4,-6.3 -17.1,-10.6 0.5,3.1 c 0.3,1.8 0.2,3.6 -0.2,5.3 -3.2,-1.6 -6.5,-3 -9.8,-4.3 l 0.9,-6.7000002 -19.1,-6.3 1.2,2.9 c 0.7,1.6999999 1,3.4 1,5.2000002 -3.4,-0.8000003 -6.9,-1.4000003 -10.5,-1.9000003 l -0.7,-6.6999999 -20,-1.80000005 1.8,2.49999995 c 1,1.5 1.8,3.1 2.2,4.9 -2.1,0 -4.1,0 -6.1,0.2 -1.5,0 -3,0.2 -4.5,0.3 l -2.2,-6.4 -19.89994,2.9 2.29998,2.1 c 1.3,1.2 2.39999,2.6 3.19998,4.2000003 -3.39998,0.8 -6.89995,1.8 -10.19993,3 l -3.59998,-5.7000003 -18.699987,7.4000003 2.7,1.5 c 1.6,0.8 3,2 4.1,3.3 -3.2,1.6 -6.3,3.4 -9.3,5.3 l -4.8,-4.7 -16.5,11.6 3,0.8 c 1.7,0.5 3.4,1.2 4.8,2.3 -2.7,2.3 -5.3,4.7 -7.8,7.3 l -5.8,-3.5 -13.4,15 h 3.1 c 1.8,0 3.6,0.5 5.2,1.2 -2.1,2.9 -4.1,5.8 -5.9,8.8 l -6.4,-2.1 -9.5,17.7 3,-0.6 c 1.7,-0.4 3.5,-0.4 5.3,0 -1.4,3.3 -2.6,6.6 -3.7,10 l -6.7,-0.5 -5.1,19.299997 2.8,-1.3 c 1.6,-0.8 3.4,-1.2 5.1,-1.3 -0.6,3.5 -1,7 -1.3,10.6 l -6.7,1.1 -0.5,20 2.4,-1.9 c 1.4,-1.1 3,-2 4.7,-2.5 0.2,3.5 0.6,7.1 1.2,10.6 l -6.3,2.6 4.1,19.7 1.9,-2.4 c 1.1,-1.4 2.5,-2.6 4,-3.5 1,3.4 2.2,6.8 3.6,10 l -5.5,3.9 8.5,18.2 1.3,-2.8 c 0.7,-1.6 1.8,-3.1 3.1,-4.3 1.8,3.1 3.7,6 5.8,8.9 l -4.4,5.1 12.5,15.8 0.6,-3.1 c 0.3,-1.8 1,-3.4 2,-4.9 2.2,2.3 4.5,4.5 6.8,6.6 0.3,0.2 0.6,0.5 0.8,0.7 l -3.2,6 15.8,12.5 v -3.1 c -0.2,-1.8 0,-3.6 0.7,-5.2 3,1.9 6.1,3.8 9.2,5.4 l -1.7,6.5 18.199967,8.5 -0.79999,-3 c -0.5,-1.7 -0.6,-3.5 -0.4,-5.3 3.29998,1.2 6.69996,2.2 10.19993,3.1 v 6.7 c 0,0 19.59997,4.1 19.59997,4.1 l -1.5,-2.7 c -0.9,-1.6 -1.4,-3.3 -1.6,-5.1 3.5,0.4 7.1,0.6 10.6,0.7 l 1.4,6.6 20.1,-0.6 -2.1,-2.3 c -1.2,-1.3 -2.1,-2.9 -2.7,-4.6 3.5,-0.4 7,-1 10.5,-1.8 l 2.9,6.1 19.4,-5.2 -2.6,-1.8 c -1.5,-1 -2.7,-2.3 -3.7,-3.8 3.3,-1.2 6.6,-2.6 9.8,-4.1 l 4.2,5.2 17.7,-9.6 -2.9,-1.1 c -1.6,-0.6 -3.1,-1.6 -4.4,-2.8 v 0 z" id="path4"></path>
  </g></svg>