<?xml version="1.0" encoding="UTF-8" standalone="no"?>
<!-- Generator: Adobe Illustrator 26.0.0, SVG Export Plug-In . SVG Version: 6.00 Build 0)  -->

<svg
   version="1.1"
   id="Layer_1"
   x="0px"
   y="0px"
   viewBox="0 0 28.3 28.3"
   style="enable-background:new 0 0 28.3 28.3;"
   xml:space="preserve"
   sodipodi:docname="Diamond-Core-Drill.svg"
   inkscape:version="1.4.3 (0d15f75, 2025-12-25)"
   xmlns:inkscape="http://www.inkscape.org/namespaces/inkscape"
   xmlns:sodipodi="http://sodipodi.sourceforge.net/DTD/sodipodi-0.dtd"
   xmlns="http://www.w3.org/2000/svg"
   xmlns:svg="http://www.w3.org/2000/svg"><defs
   id="defs12" /><sodipodi:namedview
   id="namedview12"
   pagecolor="#ffffff"
   bordercolor="#000000"
   borderopacity="0.25"
   inkscape:showpageshadow="2"
   inkscape:pageopacity="0.0"
   inkscape:pagecheckerboard="0"
   inkscape:deskcolor="#d1d1d1"
   showguides="true"
   inkscape:zoom="28.515902"
   inkscape:cx="14.15"
   inkscape:cy="14.15"
   inkscape:window-width="1920"
   inkscape:window-height="1009"
   inkscape:window-x="-8"
   inkscape:window-y="-8"
   inkscape:window-maximized="1"
   inkscape:current-layer="Layer_1" />
<style
   type="text/css"
   id="style1">
	.st0{fill:#E20613;}
	.st1{fill:#FFFFFF;}
	.st2{fill:#575756;}
	.st3{fill-rule:evenodd;clip-rule:evenodd;fill:#575756;}
</style>
<rect
   x="7.284"
   y="11.417"
   class="st0"
   width="0.702"
   height="1.113"
   id="rect1"
   style="fill:#f49600;fill-opacity:1" />
<path
   class="st0"
   d="M1.312,9.554V9.63h0.346v0.478H1.301v0.378h0.357v1.166H1.312v0.643h0.346v1.166H1.333v0.378h0.325v0.478H1.312  v0.076h0.485v-0.028H6.96c0.136,0,0.246-0.066,0.246-0.147v-1.474h0.31v-1.502h-0.31V9.729c0-0.081-0.11-0.147-0.246-0.147H1.797  V9.554H1.312z M3.217,11.265l2.621,0.76c0.181,0.053,0.285,0.242,0.233,0.423c-0.052,0.181-0.242,0.285-0.423,0.233l-2.621-0.76  c-0.181-0.053-0.286-0.242-0.233-0.423C2.846,11.317,3.035,11.213,3.217,11.265z"
   id="path1"
   style="fill:#f49600;fill-opacity:1" />
<g
   id="g12">
	<path
   class="st1"
   d="M19.47,10.753c0.118,0.038,0.284,0.039,0.344,0.12c0.274,0.369,0.651,0.386,1.057,0.389   c1.56,0.009,3.12,0.033,4.68,0.051c0.04,0.001,0.08,0.004,0.134,0.007c0,0.088,0,0.167,0,0.265c-0.348,0-0.701,0.004-1.055-0.001   c-0.786-0.009-1.573-0.023-2.36-0.033c-0.664-0.008-1.327-0.011-1.991-0.025c-0.08-0.001-0.177-0.037-0.233-0.09   c-0.207-0.197-0.399-0.409-0.598-0.615C19.456,10.798,19.463,10.776,19.47,10.753z"
   id="path2" />
	<path
   class="st1"
   d="M25.732,13.253c0,0.105,0,0.198,0,0.303c-1.561,0-3.113,0-4.675,0c0-0.101,0-0.194,0-0.303   C22.607,13.253,24.159,13.253,25.732,13.253z"
   id="path3" />
	<path
   class="st1"
   d="M25.525,12.304c0,0.101,0,0.194,0,0.299c-0.258,0-0.508,0-0.767,0c0-0.103,0-0.195,0-0.299   C25.015,12.304,25.265,12.304,25.525,12.304z"
   id="path4" />
	<path
   class="st1"
   d="M24.757,12.112c0-0.092,0-0.177,0-0.277c0.256,0,0.503,0,0.765,0c0,0.089,0,0.175,0,0.277   C25.273,12.112,25.019,12.112,24.757,12.112z"
   id="path5" />
	<path
   class="st1"
   d="M25.524,12.751c0,0.097,0,0.182,0,0.277c-0.255,0-0.499,0-0.76,0c0-0.088,0-0.178,0-0.277   C25.018,12.751,25.267,12.751,25.524,12.751z"
   id="path6" />
	<g
   id="g7">
		<path
   class="st0"
   d="M26.648,17.209c-0.014-1.479-0.127-2.949-0.352-4.414c-0.096-0.625-0.15-1.261,0.078-1.885    c0.12-0.329-0.064-0.553-0.41-0.558c-0.623-0.01-1.246-0.02-1.869-0.027c-1.342-0.017-2.684-0.033-4.026-0.047    c-0.349-0.004-0.702-0.001-1.07-0.001v4.326c0.253,0.001,0.494,0.001,0.732-0.003c0.043-0.001,0.084-0.034,0.129-0.049    c0.223-0.075,0.446-0.206,0.67-0.212c1.164-0.028,2.329-0.024,3.493-0.03c0.033,0,0.065,0.007,0.103,0.012    c0,0.088,0,0.167,0,0.265c-0.22,0-0.43,0-0.603,0c0.02,0.378,0.04,0.739,0.06,1.114c0.067,0,0.169,0,0.271,0    c0.103,0,0.206-0.003,0.308,0.001c0.322,0.011,0.555,0.25,0.543,0.57c-0.032,0.786-0.064,1.573-0.109,2.359    c-0.008,0.146,0.027,0.214,0.168,0.247c0.434,0.1,0.869,0.115,1.3,0.003c0.477-0.125,0.613-0.313,0.609-0.807    C26.671,17.783,26.65,17.496,26.648,17.209z M20.279,11.526c-0.08-0.001-0.177-0.037-0.233-0.09    c-0.207-0.197-0.399-0.409-0.598-0.615c0.007-0.023,0.014-0.046,0.021-0.068c0.118,0.038,0.284,0.039,0.344,0.12    c0.275,0.369,0.651,0.386,1.057,0.389c1.56,0.009,3.12,0.033,4.68,0.051c0.04,0.001,0.08,0.004,0.134,0.007    c0,0.088,0,0.167,0,0.265c-0.348,0-0.701,0.004-1.055-0.001c-0.786-0.009-1.573-0.023-2.36-0.033    C21.607,11.543,20.943,11.54,20.279,11.526z M24.758,12.601c0-0.103,0-0.195,0-0.299c0.257,0,0.507,0,0.767,0    c0,0.101,0,0.194,0,0.299C25.266,12.601,25.017,12.601,24.758,12.601z M25.524,12.751c0,0.097,0,0.182,0,0.277    c-0.255,0-0.499,0-0.76,0c0-0.088,0-0.178,0-0.277C25.018,12.751,25.267,12.751,25.524,12.751z M24.757,12.112    c0-0.092,0-0.177,0-0.277c0.256,0,0.503,0,0.765,0c0,0.089,0,0.175,0,0.277C25.273,12.112,25.019,12.112,24.757,12.112z     M25.732,13.555c-1.561,0-3.113,0-4.675,0c0-0.101,0-0.194,0-0.303c1.55,0,3.102,0,4.675,0    C25.732,13.357,25.732,13.451,25.732,13.555z"
   id="path7"
   style="fill:#f49600;fill-opacity:1" />
	</g>
	<g
   id="g8">
		<path
   class="st2"
   d="M14.562,11.058c-0.006,0-0.011,0-0.017,0v1.49c0.009,0,0.017,0,0.026,0c0,0.123,0.008,0.239-0.002,0.353    c-0.015,0.168,0.038,0.291,0.158,0.418c0.389,0.413,0.763,0.841,1.136,1.269c0.084,0.096,0.164,0.141,0.294,0.139    c0.603-0.007,1.206-0.003,1.809-0.003c0.111,0,0.226,0,0.352,0v-4.401c-1.26,0-2.497,0-3.756,0    C14.562,10.58,14.562,10.823,14.562,11.058z"
   id="path8"
   style="fill:#f2f4f6;fill-opacity:1" />
	</g>
	<g
   id="g10">
		<path
   class="st0"
   d="M12.937,13.555h1.09v-2.958c-0.371,0-0.724,0-1.095,0c0,0.161,0,0.308,0,0.469    c-0.168,0.008-0.314,0.014-0.461,0.02c0,0.494,0,0.967,0,1.457c0.16,0,0.301,0,0.466,0C12.937,12.891,12.937,13.224,12.937,13.555    z"
   id="path9"
   style="fill:#f49600;fill-opacity:1" />
		<path
   class="st2"
   d="M13.846,14.077L13.846,14.077h-0.71c0,0.002,0,0.004,0,0.006c-0.305,0-0.596,0-0.886,0    c0,0.159,0,0.291,0,0.436c0.092,0,0.167,0,0.241,0c0.289,0,0.289,0.001,0.289,0.285c0,1.288,0,2.577,0.001,3.864    c0,0.078,0.007,0.156,0.011,0.238c0.477,0,0.928,0,1.413,0c0-1.469,0-2.918,0-4.389c0.166,0,0.313,0,0.47,0    c0-0.154,0-0.287,0-0.441C14.393,14.077,14.122,14.077,13.846,14.077z"
   id="path10"
   style="fill:#f2f4f6;fill-opacity:1" />
	</g>
	<path
   class="st3"
   d="M8.844,10.774l-0.558,0.308l0.007,1.654l0.554,0.294L8.844,10.774z"
   id="path11"
   style="fill:#f2f4f6;fill-opacity:1" />
	<path
   class="st3"
   d="M11.933,12.529l-0.011-1.383l-0.096,0.009v-0.403c0-0.085-0.07-0.155-0.155-0.155H9.219   c-0.085,0-0.155,0.07-0.155,0.155v2.3c0,0.085,0.07,0.155,0.155,0.155h2.451c0.085,0,0.155-0.07,0.155-0.155v-0.525L11.933,12.529z   "
   id="path12"
   style="fill:#f2f4f6;fill-opacity:1" />
</g>
</svg>
