<?xml version="1.0" encoding="UTF-8" standalone="no"?>
<svg
   version="1.1"
   viewBox="-5.0 -10.0 110.0 135.0"
   id="svg2"
   sodipodi:docname="noun-expansion-joint-8007420.svg"
   inkscape:version="1.4.3 (0d15f75, 2025-12-25)"
   xmlns:inkscape="http://www.inkscape.org/namespaces/inkscape"
   xmlns:sodipodi="http://sodipodi.sourceforge.net/DTD/sodipodi-0.dtd"
   xmlns="http://www.w3.org/2000/svg"
   xmlns:svg="http://www.w3.org/2000/svg">
  <defs
     id="defs2" />
  <sodipodi:namedview
     id="namedview2"
     pagecolor="#ffffff"
     bordercolor="#000000"
     borderopacity="0.25"
     inkscape:showpageshadow="2"
     inkscape:pageopacity="0.0"
     inkscape:pagecheckerboard="0"
     inkscape:deskcolor="#d1d1d1"
     inkscape:zoom="5.9777778"
     inkscape:cx="54.953532"
     inkscape:cy="80.548327"
     inkscape:window-width="1920"
     inkscape:window-height="1009"
     inkscape:window-x="-8"
     inkscape:window-y="-8"
     inkscape:window-maximized="1"
     inkscape:current-layer="svg2" />
  <path
     d="m 95.39926,89.3125 -15.055,-61.996 c -0.15625,-0.63672 -0.72656,-1.0859 -1.3828,-1.0859 l -47.852,0.0039 c -0.875,-3.1523 -1.9766,-7.1172 -3.3633,-12.105 -0.32422,-1.1758 -1.3594,-1.9648 -2.5781,-1.9648 -1.2187,0 -2.2539,0.78906 -2.5781,1.9609 -2.8672,10.305 -4.5117,16.242 -5.457,19.684 -4.4609,1.2539 -7,3.4062 -7,5.957 0,2.1172 1.7773,3.9961 5,5.2852 0.57422,0.23047 1.1875,0.4375 1.832,0.625 l -10.598,43.641 c -0.027344,0.10937 -0.042969,0.21875 -0.042969,0.33594 v 9.6016 c 0,0.785164 0.63672,1.421904 1.4219,1.421904 h 86.266 c 0.78516,0 1.4219,-0.63672 1.4219,-1.421904 v -9.6016 c 0,-0.11719 -0.03906,-0.33594 -0.03906,-0.33594 z m -48.52,-60.238 2.8359,1.0195 -2.7031,0.96875 c -0.55469,0.19922 -0.92969,0.71875 -0.94141,1.3086 -0.01172,0.58985 0.34375,1.125 0.89062,1.3477 l 3.5039,1.4141 -3.8281,1.3867 c -0.55859,0.20313 -0.93359,0.73047 -0.9375,1.3281 -0.0039,0.59375 0.36328,1.1289 0.92188,1.3398 l 4.3164,1.6289 -4.8125,1.7148 c -0.56641,0.19922 -0.94141,0.73438 -0.94531,1.3359 -0.0039,0.59766 0.37109,1.1367 0.93359,1.3398 l 5.043,1.8398 -5.2656,1.9648 c -0.55469,0.20703 -0.92187,0.73438 -0.92578,1.3281 -0.0039,0.58984 0.36328,1.1211 0.91406,1.332 l 5.668,2.168 -5.9102,2.3203 c -0.54297,0.21094 -0.89844,0.73437 -0.90234,1.3164 -0.0039,0.58203 0.35156,1.1094 0.89063,1.3242 l 6.3398,2.5508 -6.6094,2.7305 c -0.53125,0.21875 -0.875,0.73438 -0.87891,1.3086 -0.0039,0.57422 0.33984,1.0898 0.86719,1.3164 l 7.0625,3 -7.3633,3.2148 c -0.51562,0.22656 -0.84766,0.73438 -0.85156,1.2969 -0.0039,0.56252 0.32422,1.0742 0.83984,1.3047 l 7.8477,3.5273 -8.1836,3.793 c -0.5,0.23047 -0.82031,0.73047 -0.82422,1.2812 -0.0039,0.55078 0.3125,1.0547 0.80859,1.293 l 5.8906,2.8125 h -8.3711 l 3.3945,-59.152 h 1.2891 z m -21.715,-13.609 c 0.30469,1.0977 0.625,2.2539 0.95703,3.4375 -0.63672,0.05078 -1.2734,0.05078 -1.9102,0 0.32812,-1.1875 0.65234,-2.3398 0.95703,-3.4375 z m -1.7266,6.2227 c 0.57422,0.06641 1.1523,0.10156 1.7266,0.10156 0.57812,0 1.1523,-0.03516 1.7305,-0.10156 0.21484,0.78125 0.43359,1.5664 0.65234,2.3438 -1.5938,0.32812 -3.168,0.32812 -4.7617,0 0.21484,-0.78125 0.43359,-1.5664 0.65234,-2.3477 z m -1.4102,5.0898 c 1.043,0.22656 2.0938,0.33984 3.1406,0.33984 1.0468,0 2.0977,-0.11328 3.1406,-0.33984 0.23047,0.83203 0.45703,1.6523 0.67578,2.4453 -2.5625,0.83594 -5.0742,0.83594 -7.6367,0 0.21875,-0.79297 0.44531,-1.6133 0.67578,-2.4453 z m -1.4375,5.1875 c 1.5195,0.48047 3.0469,0.72656 4.5781,0.72656 1.5273,0 3.0547,-0.24609 4.5742,-0.72656 0.20312,0.73438 0.39453,1.4297 0.57422,2.082 -3.457,1.5156 -6.8398,1.5156 -10.301,0 0.17969,-0.64844 0.37109,-1.3477 0.57422,-2.082 z m -1.3359,4.8477 c 1.9648,0.80469 3.9375,1.2109 5.9102,1.2109 1.9727,0 3.9453,-0.40625 5.9102,-1.2109 0.22656,0.83203 0.39844,1.4648 0.49609,1.832 -0.52344,0.48438 -2.7227,1.3828 -6.4062,1.3828 -3.6875,0 -5.8867,-0.89844 -6.4062,-1.3828 0.09766,-0.36719 0.26953,-1 0.49609,-1.832 z m -6.2812,2.9531 c 0,-0.76172 1.1133,-1.8047 3.2617,-2.6602 -0.37891,1.4141 -0.37891,1.4961 -0.37891,1.5977 0,2.8789 4.6758,4.168 9.3086,4.168 4.6328,0 9.3086,-1.2891 9.3086,-4.168 0,-0.10938 0,-0.19141 -0.46484,-1.9258 2.7422,0.89844 4.1641,2.1055 4.1641,2.9922 0,1.707 -4.9102,4.1875 -12.602,4.1875 -7.6918,0 -12.602,-2.4805 -12.602,-4.1875 z m 26.301,58.062 h -30.102 v -6.7578 h 30.102 z m -29.715,-9.6016 10.18,-41.918 c 1.8242,0.31641 3.8008,0.48438 5.8398,0.48438 3.9219,0 7.6328,-0.62109 10.445,-1.7461 3.2266,-1.2891 5,-3.168 5,-5.2852 0,-2.7383 -2.8672,-4.9844 -7.8828,-6.1875 -0.32812,-1.1914 -0.73437,-2.668 -1.2422,-4.5 h 10.848 l -3.3945,59.152 z m 46.199,9.6016 h -13.645 v -6.7578 h 13.645 z m -7.125,-13.676 8.2695,-3.832 c 0.50391,-0.23438 0.82812,-0.74219 0.82422,-1.2969 -0.0039,-0.55859 -0.33203,-1.0586 -0.83984,-1.2891 l -7.7656,-3.4922 7.4453,-3.2539 c 0.51953,-0.22656 0.85547,-0.74219 0.85156,-1.3086 -0.0039,-0.56641 -0.34375,-1.0781 -0.86719,-1.3008 l -6.9766,-2.9648 6.6914,-2.7656 c 0.53516,-0.22266 0.88281,-0.74219 0.87891,-1.3203 -0.0039,-0.57812 -0.35547,-1.0977 -0.89062,-1.3125 L 50,57.5 55.9961,55.1484 c 0.54688,-0.21484 0.90625,-0.74219 0.90234,-1.3281 -0.0039,-0.58594 -0.36719,-1.1133 -0.91406,-1.3203 l -5.582,-2.1367 5.3516,-1.9961 c 0.55859,-0.20703 0.92578,-0.74219 0.92578,-1.3359 -0.0039,-0.59375 -0.375,-1.125 -0.93359,-1.332 l -4.957,-1.8047 4.7461,-1.6914 c 0.5625,-0.19922 0.9375,-0.73047 0.94531,-1.3242 0.0039,-0.59766 -0.36328,-1.1328 -0.91797,-1.3438 l -4.3477,-1.6406 3.7031,-1.3438 c 0.55469,-0.19922 0.92578,-0.72266 0.9375,-1.3125 0.01172,-0.58984 -0.34375,-1.125 -0.89062,-1.3438 l -3.4844,-1.4062 2.9219,-1.0469 c 0.56641,-0.20313 0.94141,-0.73828 0.94141,-1.3398 0,-0.39453 -0.16406,-0.75781 -0.4375,-1.0195 h 1.2578 l 3.3945,59.152 H 57.1602 L 48.625,84.1599 Z m 11.02,13.676 h -1.0469 v -6.7578 h 1.0469 z m -0.62891,-68.754 h 18.824 l 14.363,59.152 h -29.793 z m 33.57,68.754 h -30.102 v -6.7578 h 30.102 z"
     id="path1"
     style="fill:#f49600;fill-opacity:1" />
</svg>
