<?xml version="1.0" encoding="UTF-8" standalone="no"?>
<svg
   data-name="Layer 1"
   viewBox="0 0 512 640"
   x="0px"
   y="0px"
   version="1.1"
   id="svg7"
   sodipodi:docname="noun-firehose.svg"
   inkscape:version="1.4.3 (0d15f75, 2025-12-25)"
   xmlns:inkscape="http://www.inkscape.org/namespaces/inkscape"
   xmlns:sodipodi="http://sodipodi.sourceforge.net/DTD/sodipodi-0.dtd"
   xmlns="http://www.w3.org/2000/svg"
   xmlns:svg="http://www.w3.org/2000/svg">
  <defs
     id="defs7" />
  <sodipodi:namedview
     id="namedview7"
     pagecolor="#ffffff"
     bordercolor="#000000"
     borderopacity="0.25"
     inkscape:showpageshadow="2"
     inkscape:pageopacity="0.0"
     inkscape:pagecheckerboard="0"
     inkscape:deskcolor="#d1d1d1"
     inkscape:zoom="1.2609375"
     inkscape:cx="255.76208"
     inkscape:cy="320.79306"
     inkscape:window-width="1920"
     inkscape:window-height="1009"
     inkscape:window-x="-8"
     inkscape:window-y="-8"
     inkscape:window-maximized="1"
     inkscape:current-layer="svg7" />
  <path
     d="m 255.99995,465.4545 c 76.1932,0 138.1818,-61.9886 138.1818,-138.1818 0,-76.1932 -61.9886,-138.1818 -138.1818,-138.1818 -76.1932,0 -138.1818,61.9886 -138.1818,138.1818 0,76.1932 61.9886,138.1818 138.1818,138.1818 z m 0,-261.8182 c 68.1747,0 123.6364,55.4616 123.6364,123.6364 0,68.1748 -55.4616,123.6364 -123.6364,123.6364 -68.1748,0 -123.6364,-55.4616 -123.6364,-123.6364 0,-68.1748 55.4616,-123.6364 123.6364,-123.6364 z"
     id="path1"
     style="fill:#f49600;fill-opacity:1" />
  <path
     d="m 255.99995,436.3636 c 60.1562,0 109.0909,-48.9382 109.0909,-109.0909 0,-60.1527 -48.9347,-109.0909 -109.0909,-109.0909 -60.1562,0 -109.0909,48.9382 -109.0909,109.0909 0,60.1527 48.9347,109.0909 109.0909,109.0909 z m 0,-203.6364 c 52.1307,0 94.5455,42.4112 94.5455,94.5455 0,52.1343 -42.4148,94.5455 -94.5455,94.5455 -52.1307,0 -94.5455,-42.4112 -94.5455,-94.5455 0,-52.1343 42.4148,-94.5455 94.5455,-94.5455 z"
     id="path2"
     style="fill:#f49600;fill-opacity:1" />
  <path
     d="m 255.99995,407.2727 c 44.1122,0 80,-35.8878 80,-80 0,-44.1122 -35.8878,-80 -80,-80 -44.1122,0 -80,35.8878 -80,80 0,44.1122 35.8878,80 80,80 z m 0,-145.4545 c 36.0938,0 65.4545,29.3643 65.4545,65.4545 0,36.0902 -29.3608,65.4545 -65.4545,65.4545 -36.0937,0 -65.4545,-29.3643 -65.4545,-65.4545 0,-36.0902 29.3608,-65.4545 65.4545,-65.4545 z"
     id="path3"
     style="fill:#f49600;fill-opacity:1" />
  <path
     d="m 255.99995,378.1818 c 20.8838,0 39.4722,-12.8067 47.0898,-31.9891 6.9869,-4.0137 11.092,-11.6242 11.092,-18.92 0,-8.105 -4.4931,-15.1096 -11.0702,-18.8716 -7.6052,-19.2108 -26.2096,-32.0375 -47.1116,-32.0375 -20.8838,0 -39.4722,12.8067 -47.0898,31.9891 -6.9869,4.0137 -11.092,11.6242 -11.092,18.92 0,8.105 4.4935,15.1092 11.0702,18.8712 7.6052,19.2103 26.2096,32.0379 47.1116,32.0379 z M 219.63635,320 h 72.7273 c 4.0128,0 7.2727,3.2635 7.2727,7.2727 0,1.4418 -1.2926,7.2727 -7.2727,7.2727 h -72.7273 c -4.0128,0 -7.2727,-3.2635 -7.2727,-7.2727 0,-1.4418 1.2926,-7.2727 7.2727,-7.2727 z m 7.2923,29.0909 h 58.1428 c -14.4886,19.3808 -43.6541,19.3808 -58.1428,0 z m 58.1428,-43.6364 h -58.1428 c 14.488,-19.3809 43.6548,-19.3809 58.1428,0 z"
     id="path4"
     style="fill:#f49600;fill-opacity:1" />
  <path
     d="m 81.45445,494.5455 h 1.3113 l 6.1035,30.5185 c 0.6818,3.3984 3.6648,5.8452 7.1307,5.8452 h 29.0909 c 3.4659,0 6.4489,-2.4467 7.1307,-5.8452 l 6.1035,-30.5185 h 1.3113 c 4.0199,0 7.2727,-3.2564 7.2727,-7.2727 v -29.0909 c 0,-4.0163 -3.2528,-7.2727 -7.2727,-7.2727 h -7.2727 v -11.0871 c 30.6152,33.6013 74.7035,54.7235 123.6364,54.7235 92.2372,0 167.2727,-75.0391 167.2727,-167.2727 0,-92.2336 -75.0355,-167.2727 -167.2727,-167.2727 -92.2372,0 -167.2728,75.0389 -167.2728,167.2725 v 123.6364 h -7.2727 c -4.0199,0 -7.2727,3.2564 -7.2727,7.2727 v 29.0909 c 0,4.0163 3.2528,7.2727 7.2727,7.2727 z m 37.6776,21.8182 h -17.1733 l -4.3608,-21.8182 h 25.8949 z m 136.8679,-341.8182 c 84.2116,0 152.7273,68.5121 152.7273,152.7273 0,84.2152 -68.5156,152.7273 -152.7273,152.7273 -50.8549,0 -95.862,-25.0826 -123.6364,-63.4237 v -0.518 h -0.3875 c -17.9874,-25.0528 -28.7034,-55.6596 -28.7034,-88.7855 0,-84.2152 68.5156,-152.7273 152.7273,-152.7273 z M 103.27265,395.368 c 4.0909,9.1384 8.9502,17.8578 14.5455,26.0449 v 29.4962 h -14.5455 z m -14.5455,70.0866 h 43.6364 v 14.5455 h -43.6364 z"
     id="path5"
     style="fill:#f49600;fill-opacity:1" />
  <path
     d="M 488.72725,80 H 23.27265 c -4.0199,0 -7.2727,3.2564 -7.2727,7.2727 v 465.4546 c 0,4.0163 3.2528,7.2727 7.2727,7.2727 h 465.4546 c 4.0199,0 7.2727,-3.2564 7.2727,-7.2727 V 87.2727 c 0,-4.0163 -3.2528,-7.2727 -7.2727,-7.2727 z M 30.54545,94.5455 h 450.909 v 36.3636 h -450.909 z m 421.8182,50.9091 V 545.4545 H 59.63635 v -400 h 392.7272 z M 30.54545,545.4545 v -400 h 14.5455 v 400 z m 450.9091,0 h -14.5455 v -400 h 14.5455 z"
     id="path6"
     style="fill:#f49600;fill-opacity:1" />
  <path
     d="m 343.27265,494.5455 v 29.0909 c 0,4.0163 3.2528,7.2727 7.2727,7.2727 h 80 c 4.0199,0 7.2727,-3.2564 7.2727,-7.2727 v -29.0909 c 0,-4.0163 -3.2528,-7.2727 -7.2727,-7.2727 h -80 c -4.0199,0 -7.2727,3.2564 -7.2727,7.2727 z m 14.5455,7.2727 h 65.4545 v 14.5455 h -65.4545 z"
     id="path7"
     style="fill:#f49600;fill-opacity:1" />
</svg>
