<?xml version="1.0" encoding="UTF-8" standalone="no"?>
<svg
   version="1.1"
   viewBox="-5.0 -10.0 110.0 135.0"
   id="svg2"
   sodipodi:docname="workers.svg"
   inkscape:version="1.4.3 (0d15f75, 2025-12-25)"
   xmlns:inkscape="http://www.inkscape.org/namespaces/inkscape"
   xmlns:sodipodi="http://sodipodi.sourceforge.net/DTD/sodipodi-0.dtd"
   xmlns="http://www.w3.org/2000/svg"
   xmlns:svg="http://www.w3.org/2000/svg">
  <defs
     id="defs2" />
  <sodipodi:namedview
     id="namedview2"
     pagecolor="#ffffff"
     bordercolor="#000000"
     borderopacity="0.25"
     inkscape:showpageshadow="2"
     inkscape:pageopacity="0.0"
     inkscape:pagecheckerboard="0"
     inkscape:deskcolor="#d1d1d1"
     inkscape:zoom="5.9777778"
     inkscape:cx="54.953532"
     inkscape:cy="69.674721"
     inkscape:window-width="1920"
     inkscape:window-height="1009"
     inkscape:window-x="-8"
     inkscape:window-y="-8"
     inkscape:window-maximized="1"
     inkscape:current-layer="svg2" />
  <path
     d="m 18.607145,91.177309 h -11.688 c -0.64844,0 -1.1719,-0.52344 -1.1719,-1.1719 0,-5.7383 1.1992,-10.133 3.4531,-13.59 3.3555,-5.1523 9.082,-8.2617 16.941,-10.566 l 0.01563,-0.0039 c 1.4102,-0.39453 2.4609,-1.5781 2.7031,-3.0352 l 0.0039,-0.01953 c 0.16016,-0.88672 0.32031,-1.8164 0.44922,-2.5781 -3.8594,-2.7617 -6.375,-7.2852 -6.375,-12.398 v -8.2031 h -1.9531 c -1.5078,0 -2.7344,-1.2266 -2.7344,-2.7344 v -3.125 c 0,-1.5078 1.2227,-2.7344 2.7344,-2.7344 h 0.61328 c 1.3086,-7.9727 8.2344,-14.062 16.574,-14.062 4.9609,0 9.4219,2.1562 12.5,5.582 3.0781,-3.4258 7.5391,-5.582 12.5,-5.582 8.3398,0 15.266,6.0898 16.574,14.062 h 0.61328 c 1.5078,0 2.7344,1.2227 2.7344,2.7344 v 3.125 c 0,1.5078 -1.2266,2.7344 -2.7344,2.7344 h -1.9531 v 8.2031 c 0,5.1133 -2.5156,9.6328 -6.3789,12.398 0.12891,0.76172 0.28906,1.6875 0.45312,2.5781 l 0.0039,0.01953 c 0.23828,1.457 1.293,2.6445 2.7031,3.0352 l 0.01563,0.0039 c 7.8594,2.3008 13.586,5.4141 16.941,10.566 2.2539,3.4609 3.4531,7.8516 3.4531,13.59 0,0.64844 -0.52734,1.1719 -1.1719,1.1719 h -11.688 c 0.23828,1.5664 0.35938,3.2539 0.35938,5.0781 0,0.64844 -0.52734,1.1719 -1.1719,1.1719 h -62.508 c -0.64844,0 -1.1719,-0.52344 -1.1719,-1.1719 0,-1.8242 0.12109,-3.5117 0.35938,-5.0781 z m 12.859,-29.672 c -0.09375,0.54688 -0.19531,1.1328 -0.30078,1.6992 -0.23438,1.4023 -0.9375,2.6484 -1.9453,3.5586 l 8.1133,5.7344 c 0.42969,-0.13281 0.86328,-0.26953 1.3047,-0.39844 l 0.01563,-0.0039 c 1.4102,-0.39453 2.4609,-1.5781 2.7031,-3.0352 l 0.0039,-0.01953 c 0.16016,-0.88672 0.32031,-1.8164 0.44922,-2.5781 -1.3242,-0.94531 -2.4883,-2.1016 -3.4492,-3.4141 h -0.19531 c -2.4023,0 -4.6797,-0.55859 -6.6992,-1.5508 z m -4.4883,6.543 c -0.0625,0.01953 -0.12109,0.03516 -0.17969,0.05469 -0.76953,0.22656 -1.5195,0.46094 -2.2461,0.69922 l 5.2656,6.7539 c 1.4609,-0.78125 3.0547,-1.4805 4.7812,-2.125 z m -4.75,1.5859 c -4.9297,1.9102 -8.6719,4.3867 -11.062,8.0586 -1.8828,2.8906 -2.9102,6.5117 -3.0547,11.141 h 10.961 c 0.58203,-2.3438 1.4648,-4.3828 2.6289,-6.168 1.5352,-2.3594 3.5703,-4.2891 6.0781,-5.9141 z m 3.0508,-30.02 v 8.2031 c 0,6.6992 5.1094,12.207 11.645,12.832 -0.95312,-1.9922 -1.4883,-4.2227 -1.4883,-6.582 v -8.2031 h -1.9531 c -1.5078,0 -2.7344,-1.2266 -2.7344,-2.7344 v -3.125 c 0,-0.13281 0.0078,-0.26172 0.02734,-0.39062 z m -2.6719,-6.25 h -1.6289 c -0.21484,0 -0.39062,0.17578 -0.39062,0.39062 v 3.125 c 0,0.21484 0.17188,0.39062 0.39062,0.39062 h 13.113 c 0.22656,-1.3672 0.61328,-2.6758 1.1445,-3.9062 z m 25.625,-9.9805 c -2.6016,-2.5273 -6.1523,-4.082 -10.062,-4.082 -7.043,0 -12.914,5.0469 -14.195,11.719 h 12.5 c 2.5664,-4.043 6.8125,-6.918 11.754,-7.6367 z m 29.129,7.6367 c -1.2773,-6.6719 -7.1523,-11.719 -14.195,-11.719 -3.9102,0 -7.4609,1.5586 -10.062,4.082 4.9414,0.71875 9.1875,3.5938 11.754,7.6367 z m -10.117,6.25 h 13.113 c 0.21484,0 0.39062,-0.17578 0.39062,-0.39062 v -3.125 c 0,-0.21484 -0.17578,-0.39062 -0.39062,-0.39062 h -14.258 c 0.53125,1.2305 0.91797,2.5391 1.1445,3.9062 z m 2.625,24.234 c -2.0234,0.99219 -4.2969,1.5508 -6.6992,1.5508 h -0.19531 c -0.96094,1.3125 -2.125,2.4648 -3.4492,3.4141 0.12891,0.76172 0.28906,1.6875 0.45312,2.5781 l 0.0039,0.01953 c 0.23828,1.457 1.293,2.6445 2.7031,3.0352 l 0.01563,0.0039 c 0.44141,0.12891 0.875,0.26172 1.3047,0.39844 l 8.1133,-5.7344 c -1.0078,-0.91016 -1.7109,-2.1562 -1.9453,-3.5586 -0.10156,-0.56641 -0.20312,-1.1523 -0.30078,-1.6992 z m -5.457,-0.85547 c 6.5352,-0.625 11.648,-6.1328 11.648,-12.832 v -8.2031 h -5.5 c 0.01953,0.125 0.02734,0.25781 0.02734,0.39062 v 3.125 c 0,1.5078 -1.2266,2.7344 -2.7344,2.7344 h -1.9531 v 8.2031 c 0,2.3555 -0.53516,4.5898 -1.4922,6.582 z m 17.855,28.184 h 10.961 c -0.14453,-4.6289 -1.1719,-8.25 -3.0547,-11.141 -2.3906,-3.6719 -6.1367,-6.1484 -11.066,-8.0586 l -5.5508,7.1172 c 2.5078,1.6211 4.543,3.5547 6.0781,5.9141 1.1641,1.7891 2.0469,3.8242 2.6289,6.168 z m -5.4805,-20.035 c -0.72656,-0.24219 -1.4766,-0.47266 -2.2461,-0.69922 -0.0625,-0.01563 -0.12109,-0.03516 -0.17969,-0.05469 l -7.6211,5.3828 c 1.7266,0.64062 3.3203,1.3438 4.7812,2.125 z m -24.945,26.285 h 28.887 c -0.14453,-4.6289 -1.1719,-8.25 -3.0547,-11.141 -2.3906,-3.6719 -6.1367,-6.1484 -11.066,-8.0586 l -9.0078,11.555 c -0.20313,0.26562 -0.51563,0.42969 -0.84766,0.44922 -0.33203,0.01953 -0.66016,-0.10156 -0.89844,-0.33594 l -4.0117,-3.9727 v 11.508 z m -17.113,-19.199 c -4.9297,1.9102 -8.6719,4.3867 -11.062,8.0586 -1.8828,2.8906 -2.9102,6.5117 -3.0547,11.141 h 28.887 v -11.508 l -4.0117,3.9727 c -0.23828,0.23438 -0.56641,0.35547 -0.89844,0.33594 -0.33594,-0.02344 -0.64453,-0.18359 -0.84766,-0.44922 l -9.0078,-11.555 z m 29.145,-0.96875 c -0.01953,-0.0078 -0.03906,-0.01172 -0.0625,-0.01953 -0.57812,-0.1875 -1.168,-0.36719 -1.7695,-0.54297 -0.0625,-0.01563 -0.12109,-0.03516 -0.17969,-0.05469 l -9.3711,6.625 4.0781,4.0352 7.7227,-9.9062 c -0.14062,-0.04297 -0.27734,-0.08984 -0.41406,-0.13672 z m -19.906,-7.1602 c -0.09375,0.54688 -0.19531,1.1328 -0.30078,1.6992 -0.23438,1.4023 -0.9375,2.6484 -1.9453,3.5586 l 8.9453,6.3203 8.9453,-6.3203 c -1.0078,-0.91016 -1.7109,-2.1562 -1.9453,-3.5586 -0.10156,-0.56641 -0.20312,-1.1523 -0.30078,-1.6992 -2.0234,0.99219 -4.2969,1.5508 -6.6992,1.5508 -2.4023,0 -4.6797,-0.55859 -6.6992,-1.5508 z m -4.4883,6.543 c -0.0625,0.01953 -0.12109,0.03516 -0.17969,0.05469 -0.76953,0.22656 -1.5195,0.46094 -2.2461,0.69922 l 7.7227,9.9062 4.0781,-4.0352 z m -1.6992,-28.434 v 8.2031 c 0,7.1211 5.7695,12.891 12.891,12.891 7.1215,0 12.891,-5.7734 12.891,-12.891 v -8.2031 z m -4.2969,-6.25 c -0.21484,0 -0.39062,0.17578 -0.39062,0.39062 v 3.125 c 0,0.21484 0.17188,0.39062 0.39062,0.39062 h 34.375 c 0.21484,0 0.39062,-0.17578 0.39062,-0.39062 v -3.125 c 0,-0.21484 -0.17578,-0.39062 -0.39062,-0.39062 z m 16.016,-14.016 c -1.8047,0.14453 -3.5117,0.62109 -5.0664,1.3672 l 1.0977,3.293 c 0.20703,0.61328 -0.125,1.2773 -0.74219,1.4805 -0.61328,0.20703 -1.2773,-0.12891 -1.4805,-0.74219 l -0.94141,-2.8242 c -3.0078,2.1172 -5.1719,5.3477 -5.8906,9.0938 h 28.387 c -0.71875,-3.7461 -2.8828,-6.9805 -5.8906,-9.0938 l -0.94141,2.8242 c -0.20312,0.61328 -0.86719,0.94531 -1.4805,0.74219 -0.61328,-0.20312 -0.94531,-0.86719 -0.74219,-1.4805 l 1.0977,-3.293 c -1.5547,-0.74609 -3.2617,-1.2188 -5.0625,-1.3672 v 6.2227 c 0,0.64844 -0.52734,1.1719 -1.1719,1.1719 -0.64844,0 -1.1719,-0.52344 -1.1719,-1.1719 z"
     fill-rule="evenodd"
     id="path1"
     style="fill:#f49600;fill-opacity:1" />
</svg>
